<?xml version="1.0" standalone="no"?><!DOCTYPE svg PUBLIC "-//W3C//DTD SVG 1.1//EN"
        "http://www.w3.org/Graphics/SVG/1.1/DTD/svg11.dtd">
<svg class="icon" width="200px" height="200.00px" viewBox="0 0 1024 1024" version="1.1"
     xmlns="http://www.w3.org/2000/svg">
    <path d="M141.022 59.942c-16.03 0-29.072 13.042-29.072 29.072s13.042 29.072 29.072 29.072 29.072-13.042 29.072-29.072-13.042-29.072-29.072-29.072z m0 42.722a13.664 13.664 0 0 1-13.65-13.65 13.664 13.664 0 0 1 13.65-13.65 13.664 13.664 0 0 1 13.65 13.65 13.664 13.664 0 0 1-13.65 13.65zM29.98 12.446C13.95 12.446 0.908 25.488 0.908 41.518S13.95 70.59 29.98 70.59s29.072-13.042 29.072-29.072S46.01 12.446 29.98 12.446z m0 42.722c-7.526 0-13.65-6.122-13.65-13.65s6.124-13.65 13.65-13.65 13.65 6.122 13.65 13.65-6.126 13.65-13.65 13.65zM260.686 15.678c-16.03 0-29.072 13.042-29.072 29.072s13.042 29.072 29.072 29.072 29.072-13.042 29.072-29.072-13.042-29.072-29.072-29.072z m0 42.722a13.666 13.666 0 0 1-13.65-13.65 13.664 13.664 0 0 1 13.65-13.65 13.664 13.664 0 0 1 13.65 13.65 13.666 13.666 0 0 1-13.65 13.65zM763.374 0c-16.03 0-29.072 13.042-29.072 29.072s13.042 29.072 29.072 29.072 29.072-13.042 29.072-29.072C792.448 13.042 779.404 0 763.374 0z m0 42.722c-7.526 0-13.65-6.122-13.65-13.65s6.124-13.65 13.65-13.65c7.526 0 13.65 6.122 13.65 13.65s-6.124 13.65-13.65 13.65zM891.356 103.002c-16.03 0-29.072 13.042-29.072 29.072s13.042 29.072 29.072 29.072 29.072-13.042 29.072-29.072c0-16.028-13.042-29.072-29.072-29.072z m0 42.724a13.664 13.664 0 0 1-13.65-13.65 13.664 13.664 0 0 1 13.65-13.65 13.664 13.664 0 0 1 13.65 13.65 13.664 13.664 0 0 1-13.65 13.65zM994.02 22.736c-16.03 0-29.072 13.042-29.072 29.072s13.042 29.072 29.072 29.072 29.072-13.042 29.072-29.072c0-16.028-13.042-29.072-29.072-29.072z m0 42.724a13.664 13.664 0 0 1-13.65-13.65c0-7.528 6.124-13.65 13.65-13.65s13.65 6.122 13.65 13.65a13.666 13.666 0 0 1-13.65 13.65zM278.838 263.676V395h456.568v-131.322H278.838z m441.146 115.9H294.262v-100.478h425.724v100.478z"
          fill="#4A555F"/>
    <path d="M312.24 297.07v64.516h389.772v-64.516H312.24z m65.03 49.456c-10.334 0-18.662-8.38-18.662-18.714 0-10.282 8.328-18.66 18.662-18.66s18.712 8.378 18.712 18.66c0 10.334-8.38 18.714-18.712 18.714z"
          fill="#F58E6F"/>
    <path d="M278.838 423.348v131.32h456.568v-131.32H278.838z m441.146 115.898H294.262v-100.476h425.724v100.476z"
          fill="#4A555F"/>
    <path d="M312.24 456.742v64.516h389.772v-64.516H312.24z m65.03 50.946c-10.334 0-18.662-8.378-18.662-18.66 0-10.332 8.328-18.712 18.662-18.712s18.712 8.38 18.712 18.712c0 10.28-8.38 18.66-18.712 18.66z"
          fill="#F58E6F"/>
    <path d="M278.838 583.018v131.322h456.568v-131.322H278.838z m441.146 115.9H294.262V598.44h425.724v100.478z"
          fill="#4A555F"/>
    <path d="M312.24 616.414v64.516h389.772v-64.516H312.24z m65.03 52.488c-10.334 0-18.662-8.38-18.662-18.712 0-10.332 8.328-18.712 18.662-18.712s18.712 8.38 18.712 18.712c0 10.332-8.38 18.712-18.712 18.712z"
          fill="#F58E6F"/>
    <path d="M253.326 66.126v106.716l-120.034 117.314V785.32h15.422V296.648l120.034-117.314V66.126zM256.514 893.07h228.302v15.422H256.514zM771.668 173.624V50.448h-15.422V181.74l127.39 87.496V785.32h15.422V261.118zM547.534 893.07h228.352v15.422H547.534zM508.476 707.928h15.422v161.5h-15.422z"
          fill="#4A555F"/>
    <path d="M516.188 861.716c-21.548 0-39.072 17.528-39.072 39.076s17.526 39.074 39.072 39.074c21.546 0 39.078-17.528 39.078-39.074s-17.532-39.076-39.078-39.076z m0 62.728c-13.042 0-23.65-10.61-23.65-23.652 0-13.042 10.608-23.652 23.65-23.652s23.656 10.61 23.656 23.652c-0.002 13.042-10.614 23.652-23.656 23.652zM883.646 151.034h15.422v199.384h-15.422z"
          fill="#4A555F"/>
    <path d="M986.31 73.17v119.204l-100.266 95.236 10.624 11.18 105.064-99.794V73.17zM37.69 265.05V62.878h-15.422v208.558l113.304 113.3 10.902-10.904zM133.312 110.376h15.422v183.014h-15.422zM377.282 301.428c-14.558 0-26.406 11.846-26.406 26.404 0 14.562 11.848 26.406 26.406 26.406s26.402-11.846 26.402-26.406c-0.002-14.558-11.844-26.404-26.402-26.404z m0 37.39a11 11 0 0 1-10.984-10.984 10.998 10.998 0 0 1 10.984-10.982 10.994 10.994 0 0 1 10.98 10.982 10.996 10.996 0 0 1-10.98 10.984zM451.898 320.122H655.66v15.422H451.898zM377.282 462.604c-14.558 0-26.406 11.846-26.406 26.404s11.848 26.404 26.406 26.404 26.402-11.846 26.402-26.404c-0.002-14.558-11.844-26.404-26.402-26.404z m0 37.386a10.998 10.998 0 0 1-10.984-10.982 10.998 10.998 0 0 1 10.984-10.982 10.994 10.994 0 0 1 10.98 10.982 10.996 10.996 0 0 1-10.98 10.982zM451.898 481.298H655.66v15.422H451.898zM377.282 623.78c-14.558 0-26.406 11.846-26.406 26.404 0 14.56 11.848 26.404 26.406 26.404s26.402-11.846 26.402-26.404c-0.002-14.558-11.844-26.404-26.402-26.404z m0 37.386a10.998 10.998 0 0 1-10.984-10.982 10.998 10.998 0 0 1 10.984-10.982 10.994 10.994 0 0 1 10.98 10.982 10.996 10.996 0 0 1-10.98 10.982zM451.898 642.472H655.66v15.422H451.898zM891.356 777.584c-67.938 0-123.208 55.27-123.208 123.208 0 67.94 55.268 123.21 123.208 123.21s123.208-55.27 123.208-123.21c0-67.938-55.27-123.208-123.208-123.208z m0 230.994c-59.434 0-107.784-48.352-107.784-107.788 0-59.432 48.35-107.784 107.784-107.784 59.436 0 107.786 48.352 107.786 107.784 0 59.436-48.35 107.788-107.786 107.788z"
          fill="#4A555F"/>
    <path d="M891.356 811c-49.51 0-89.792 40.28-89.792 89.792s40.282 89.792 89.792 89.792c49.51 0 89.792-40.28 89.792-89.792S940.866 811 891.356 811z"
          fill="#71CCE0"/>
    <path d="M141.022 777.584c-67.938 0-123.212 55.27-123.212 123.208 0 67.94 55.274 123.21 123.212 123.21s123.208-55.27 123.208-123.21c0-67.938-55.268-123.208-123.208-123.208z m0 230.994c-59.436 0-107.79-48.352-107.79-107.788 0-59.432 48.356-107.784 107.79-107.784 59.434 0 107.784 48.352 107.784 107.784 0.002 59.436-48.348 107.788-107.784 107.788z"
          fill="#4A555F"/>
    <path d="M141.022 811c-49.514 0-89.798 40.28-89.798 89.792s40.284 89.792 89.798 89.792c49.51 0 89.792-40.28 89.792-89.792 0.002-49.512-40.282-89.792-89.792-89.792z"
          fill="#FFD452"/>
    <path d="M891.356 831.396c-23.872 0-45.78 12.09-58.612 32.338l13.034 8.252c9.98-15.76 27.024-25.168 45.578-25.168s35.598 9.408 45.58 25.168l13.032-8.252c-12.832-20.25-34.74-32.338-58.612-32.338zM939.3 925.5c-9.322 18.05-27.692 29.264-47.944 29.264-20.246 0-38.616-11.212-47.944-29.264l-13.706 7.08c11.988 23.196 35.614 37.606 61.648 37.606 26.04 0 49.666-14.41 61.648-37.606l-13.702-7.08z"
          fill="#4A555F"/>
    <path d="M938.442 833.28v28.446h-27.346v15.422h42.768V833.28zM828.848 924.444v43.868h15.422v-28.446h27.346v-15.422zM192.164 856.554l-71.86 71.862-30.248-32.86-11.344 10.448 41.13 44.682 83.226-83.228z"
          fill="#4A555F"/>
</svg>