<?xml version="1.0" standalone="no"?><!DOCTYPE svg PUBLIC "-//W3C//DTD SVG 1.1//EN" "http://www.w3.org/Graphics/SVG/1.1/DTD/svg11.dtd"><svg class="icon" width="200px" height="200.00px" viewBox="0 0 1024 1024" version="1.1" xmlns="http://www.w3.org/2000/svg"><path d="M858.453333 218.453333L677.546667 37.546667A128 128 0 0 0 587.093333 0H256a128 128 0 0 0-128 128v768a128 128 0 0 0 128 128h512a128 128 0 0 0 128-128V308.906667a128 128 0 0 0-37.546667-90.453334z" fill="#F24922" /><path d="M891.306667 277.333333H618.666667V4.693333a128 128 0 0 1 58.88 32.853334l180.906666 180.906666a128 128 0 0 1 32.853334 58.88z m-247.893334 417.706667a42.666667 42.666667 0 0 0 0-60.16L554.666667 544l90.453333-90.453333a42.666667 42.666667 0 1 0-60.16-60.16l-92.16 90.453333-90.453333-90.88A42.666667 42.666667 0 1 0 341.333333 453.546667l90.453334 90.453333L341.333333 634.453333a42.666667 42.666667 0 0 0 60.16 60.16l90.453334-90.453333 90.453333 90.453333a42.666667 42.666667 0 0 0 61.013333 0.426667z" fill="#C6361E" /><path d="M884.053333 256H640V11.946667a128 128 0 0 1 37.546667 25.6l180.906666 180.906666a128 128 0 0 1 25.6 37.546667z m-216.746666 417.706667a42.666667 42.666667 0 0 0 0-60.16l-90.453334-90.453334 90.453334-90.453333a42.666667 42.666667 0 0 0-60.16-60.16L516.266667 462.506667 426.666667 371.626667a42.666667 42.666667 0 1 0-60.16 60.16l90.453333 90.453333-91.306667 90.88A42.666667 42.666667 0 1 0 426.666667 673.706667l89.6-90.88 90.453333 90.453333a42.666667 42.666667 0 0 0 60.586667 0.426667z" fill="#FFA42C" /></svg>