<?xml version="1.0" standalone="no"?><!DOCTYPE svg PUBLIC "-//W3C//DTD SVG 1.1//EN" "http://www.w3.org/Graphics/SVG/1.1/DTD/svg11.dtd"><svg class="icon" width="200px" height="199.80px" viewBox="0 0 1025 1024" version="1.1" xmlns="http://www.w3.org/2000/svg"><path d="M344.561484 855.357616L504.813931 1017.729805a21.197414 21.197414 0 0 0 30.100328 0l160.676396-160.676396a21.197414 21.197414 0 0 0-14.838189-36.035604h-117.433673V403.004806a42.394827 42.394827 0 0 0-84.789655 0v415.893258H358.975725a21.197414 21.197414 0 0 0-14.414241 36.459552z" fill="#1CC9C9" /><path d="M520.923966 360.609979a42.394827 42.394827 0 0 0-42.394828 42.394827v381.553448h84.789655v-381.553448a42.394827 42.394827 0 0 0-42.394827-42.394827z" fill="#1BAAA6" /><path d="M895.694241 356.794444V339.412565A339.15862 339.15862 0 0 0 241.118104 215.619669 275.14243 275.14243 0 0 0 259.771829 763.36084h551.132757a211.974137 211.974137 0 0 0 84.789655-406.566396z" fill="#24D6ED" /><path d="M873.648931 377.991858V360.609979a339.15862 339.15862 0 0 0-561.731465-254.368965 339.15862 339.15862 0 0 0-71.647258 110.226551c-4.663431 0-8.902914 2.119741-13.566345 3.391586a339.15862 339.15862 0 0 0 386.640827 471.430482 214.093879 214.093879 0 0 0 84.789655 73.343052H810.904586a211.974137 211.974137 0 0 0 138.207138-52.569586 211.974137 211.974137 0 0 0-75.462793-332.799396z" fill="#1EB6C1" /><path d="M895.694241 356.794444V339.412565a339.15862 339.15862 0 1 0-261.152137 329.831758A211.974137 211.974137 0 1 0 895.694241 356.794444z" fill="#22E6EF" /></svg>