<?xml version="1.0" standalone="no"?><!DOCTYPE svg PUBLIC "-//W3C//DTD SVG 1.1//EN"
        "http://www.w3.org/Graphics/SVG/1.1/DTD/svg11.dtd">
<svg class="icon" width="200px" height="200.00px" viewBox="0 0 1024 1024" version="1.1"
     xmlns="http://www.w3.org/2000/svg">
    <path d="M512 1023.600156h-1.199531c-118.753612-19.992191-227.111285-81.568137-305.080828-173.532214s-120.752831-208.718469-120.752831-329.4713V168.334244L512 0l426.633346 168.334244v352.662242c0 120.352987-42.783288 237.507224-120.752831 329.4713-77.969543 91.964077-185.927372 153.540023-305.080827 173.532214l-0.799688-0.399844zM98.161656 177.130808v343.865678c0 117.55408 41.583756 231.509567 117.55408 321.07458 75.57048 89.16517 180.729403 149.141742 295.88442 168.734088 115.155018-19.592347 220.31394-79.568918 295.88442-168.734088 75.970324-89.565014 117.55408-203.5205 117.554081-321.07458v-343.865678L512 13.994533 98.161656 177.130808z"
          fill="#4A555F"/>
    <path d="M512 977.618118l-1.199531-0.399844c-220.31394-40.384225-380.251464-232.709098-380.251465-457.021476V198.722374L512 48.381101l381.450996 150.341273v321.874268c0 224.312378-159.937524 416.237407-380.251465 457.021476h-1.199531zM143.344006 207.518938v313.077704c0 217.515033 154.739555 403.842249 368.655994 443.82663 213.516595-39.984381 368.655994-226.311597 368.655994-443.82663V207.518938L512 62.375635 143.344006 207.518938z"
          fill="#4A555F"/>
    <path d="M512 79.968762L159.737602 218.714565v301.882077c0 208.718469 147.94221 387.848497 352.262398 427.433034 204.320187-39.584537 352.262398-218.714565 352.262398-427.433034V218.714565L512 79.968762z m3.19875 612.160875c-111.156579 0-201.121437-89.964857-201.121436-201.121437 0-111.156579 89.964857-201.121437 201.121436-201.121437 111.156579 0 201.121437 89.964857 201.121437 201.121437 0 110.756736-89.964857 201.121437-201.121437 201.121437z"
          fill="#71CDE1"/>
    <path d="M515.19875 698.527138c-114.35533 0-207.918782-93.163608-207.918781-207.918782 0-114.35533 93.163608-207.918782 207.918781-207.918782 114.35533 0 207.918782 93.163608 207.918782 207.918782-0.399844 114.755174-93.563452 207.918782-207.918782 207.918782z m0-402.642718c-107.557985 0-194.723936 87.165951-194.723935 194.723936 0 107.557985 87.565795 194.723936 194.723935 194.723936 107.557985 0 194.723936-87.165951 194.723936-194.723936 0-107.158141-87.165951-194.723936-194.723936-194.723936z"
          fill="#4A555F"/>
    <path d="M515.19875 675.736041c-4.398282 0-8.796564 0-13.594689-0.399844l0.799688-12.795002c6.397501 0.399844 12.795002 0.399844 19.192502 0.399844l0.399844 12.795002h-6.797345z m20.791879-0.799688l-1.599376-12.795002c3.998438-0.399844 8.39672-1.199531 12.395159-1.999219l2.399062 12.795002c-4.398282 0.799688-8.796564 1.199531-13.194845 1.999219z m-47.581414-0.799688l-13.194846-2.399063 2.798907-12.795001c3.998438 0.799688 7.996876 1.599375 12.395158 2.399062l-1.999219 12.795002z m73.971105-4.398282l-3.19875-12.395158 11.995314-3.598594 4.398282 12.395158c-4.798126 1.199531-9.196408 2.399063-13.194846 3.598594z m-100.360796-1.599375c-4.398282-1.199531-8.39672-2.798907-12.795002-4.398282l4.798125-11.995314c3.998438 1.599375 7.996876 2.798907 11.995315 3.998438l-3.998438 12.395158z m125.550956-7.197188l-5.197969-11.995315c3.998438-1.599375 7.597032-3.598594 11.195626-5.197969l5.997658 11.59547c-3.598594 1.999219-7.996876 3.998438-11.995315 5.597814z m-150.341273-2.399063l-11.995314-5.997657 6.397501-11.195627c3.598594 1.999219 7.197189 3.998438 11.195627 5.597813l-5.597814 11.595471z m174.331902-9.596252l-6.797345-11.195626c3.598594-1.999219 7.197189-4.398282 10.395939-6.797345l7.597033 10.395939c-3.598594 2.798907-7.597032 5.19797-11.195627 7.597032z m-197.922687-3.598594c-3.598594-2.399063-7.597032-5.19797-10.795782-7.597032l7.996876-10.39594c3.19875 2.399063 6.797345 4.798126 9.996095 7.197189l-7.197189 10.795783z m219.514253-11.995314l-8.39672-9.996096c3.19875-2.798907 6.397501-5.597813 9.196407-8.39672l8.796564 9.196408c-2.798907 3.19875-5.997657 6.397501-9.596251 9.196408z m-240.705974-4.398282c-3.19875-2.798907-6.397501-5.997657-9.596252-9.196408l9.196408-9.196408c2.798907 2.798907 5.997657 5.997657 9.196407 8.796564l-8.796563 9.596252z m260.29832-14.394377l-9.596251-8.796564c2.798907-3.19875 5.597813-6.397501 7.996876-9.596252l10.395939 7.996876c-2.798907 3.598594-5.997657 7.197189-8.796564 10.39594z m-279.09098-4.798126c-2.798907-3.598594-5.597813-6.797345-8.39672-10.395939l10.395939-7.597033c2.399063 3.19875 5.19797 6.797345 7.597033 9.996096l-9.596252 7.996876z m295.484577-16.393596l-10.795783-7.197189c2.399063-3.598594 4.398282-7.197189 6.397501-10.795783l11.195627 6.397501c-1.999219 3.998438-4.398282 7.996876-6.797345 11.595471z m-311.478329-5.19797c-2.399063-3.598594-4.398282-7.597032-6.797345-11.595471l11.595471-5.997657c1.999219 3.598594 3.998438 7.197189 6.397501 10.795783l-11.195627 6.797345z m324.673174-17.992971l-11.59547-5.597814c1.599375-3.598594 3.598594-7.597032 4.798126-11.59547l11.995314 4.798125c-1.199531 3.998438-3.19875 8.39672-5.19797 12.395159z m-337.068332-5.997658c-1.599375-3.998438-3.598594-8.39672-4.798126-12.395158l12.395158-4.398282c1.199531 3.998438 2.798907 7.996876 4.398282 11.595471l-11.995314 5.197969z m347.064428-19.192503l-12.395158-3.998438c1.199531-3.998438 2.399063-7.996876 3.19875-11.995314l12.795002 2.798907-3.598594 13.194845z m-355.860992-5.997657c-1.199531-4.398282-1.999219-8.796564-3.198751-13.194846l12.795002-2.399062c0.799688 3.998438 1.599375 7.996876 2.798907 11.995314l-12.395158 3.598594z m361.858649-19.99219l-12.795002-1.999219c0.799688-3.998438 1.199531-8.39672 1.599375-12.395159l12.795002 1.199532c-0.399844 3.998438-1.199531 8.796564-1.599375 13.194846z m-367.056619-6.397501l-1.199531-13.194846 12.795002-0.399844c0 3.998438 0.399844 8.39672 1.199531 12.395158l-12.795002 1.199532z m369.055838-20.392035h-12.795002v-1.199531c0-3.598594 0-7.597032-0.399844-11.195627l12.795002-0.799687c0.399844 3.998438 0.399844 7.996876 0.399844 11.995314v1.199531z m-357.460367-5.997657l-12.795002-0.399844c0-4.398282 0.399844-8.796564 0.799688-13.594689l12.795002 1.199531c-0.399844 4.398282-0.399844 8.796564-0.799688 12.795002z m342.666146-19.192503c-0.399844-3.998438-1.199531-8.39672-1.999219-12.395158l12.795002-2.798907 2.399063 13.194846-13.194846 1.999219z m-339.867239-5.597813l-12.795002-2.399063c0.799688-4.398282 1.599375-8.796564 2.798906-13.194846l12.395158 3.198751c-0.799688 3.998438-1.999219 8.39672-2.399062 12.395158z m334.669269-18.792659c-1.199531-3.998438-2.399063-7.996876-3.998438-11.995315l11.995315-4.398281c1.599375 3.998438 2.798907 8.39672 4.398282 12.795001l-12.395159 3.598595z m-328.671612-5.597814l-12.395158-3.998438c1.199531-4.398282 2.798907-8.39672 4.798125-12.795002l11.995315 4.798126c-1.599375 3.998438-3.19875 7.996876-4.398282 11.995314z m320.274892-17.992971c-1.599375-3.598594-3.598594-7.597032-5.597813-11.195627l11.195627-6.397501 5.997657 11.995315-11.595471 5.597813z m-310.678641-5.19797l-11.59547-5.997657c1.999219-3.998438 3.998438-7.996876 6.397501-11.995314l11.195626 6.797345c-2.399063 3.998438-4.398282 7.597032-5.997657 11.195626z m298.683327-16.393596c-2.399063-3.598594-4.798126-6.797345-7.197189-10.395939l10.39594-7.996876c2.798907 3.598594 5.19797 7.197189 7.597032 11.195627l-10.795783 7.197188z m-285.888325-4.798126l-10.795783-7.597032c2.399063-3.598594 5.19797-7.197189 7.996877-10.795783l9.996095 7.996876c-2.399063 3.598594-5.19797 6.797345-7.197189 10.395939z m270.69426-15.194064c-2.798907-3.19875-5.597813-5.997657-8.39672-9.196408l9.196408-9.196408c3.19875 3.19875 6.397501 6.397501 9.196408 9.596252l-9.996096 8.796564z m-255.100351-4.398282L380.051542 364.257712l9.596252-9.596252 8.796564 9.596252c-3.19875 2.798907-5.997657 5.997657-8.796564 8.796564z m237.10738-13.194846c-3.19875-2.798907-6.397501-5.19797-9.596252-7.597032l7.597033-10.39594c3.598594 2.798907 7.197189 5.597813 10.395939 8.39672l-8.39672 9.596252z m-218.714565-3.598594l-7.996876-9.996096c3.598594-2.798907 7.197189-5.597813 10.795783-7.996876l7.197188 10.795783c-3.598594 1.999219-6.797345 4.398282-9.996095 7.197189z m198.722374-11.195627c-3.598594-2.399063-7.197189-4.398282-10.795783-6.397501l5.997657-11.595471c3.998438 1.999219 7.996876 4.398282 11.595471 6.797345l-6.797345 11.195627z m-178.33034-3.198751l-6.3975-11.195626c3.998438-2.399063 7.996876-4.398282 11.995314-6.397501l5.597813 11.59547c-3.998438 1.999219-7.597032 3.998438-11.195627 5.997657z m156.338931-8.796563c-3.598594-1.599375-7.597032-3.19875-11.595471-4.798126l4.398282-12.395158c4.398282 1.599375 8.39672 3.19875 12.395158 5.197969l-5.197969 11.995315z m-133.947677-1.999219l-4.798126-11.995315c3.998438-1.599375 8.39672-3.19875 12.795002-4.398282l3.998438 12.395158c-3.998438 0.799688-7.996876 2.399063-11.995314 3.998439z m110.356892-6.397501c-3.998438-1.199531-7.996876-1.999219-11.995315-2.798907l2.399063-12.795002c4.398282 0.799688 8.796564 1.999219 13.194846 3.19875l-3.598594 12.395159z m-86.366263-1.199532l-3.198751-12.795002c4.398282-1.199531 8.796564-1.999219 13.194846-2.798907l1.999219 12.795002c-3.998438 0.799688-7.996876 1.599375-11.995314 2.798907z m61.97579-3.598594c-3.998438-0.399844-8.39672-0.799688-12.395158-1.199532l0.799688-12.795002 13.194846 1.199532-1.599376 12.795002z m-37.585318-0.399844l-1.199531-12.795002c4.398282-0.399844 8.796564-0.799688 13.594689-0.799688l0.399844 12.795002c-4.398282 0-8.39672 0.399844-12.795002 0.799688zM471.215931 567.778212l-64.374853-72.771574 9.596251-8.39672 55.978134 62.775478 144.743459-131.14877 8.39672 9.596252z"
          fill="#4A555F"/>
</svg>