<?xml version="1.0" standalone="no"?><!DOCTYPE svg PUBLIC "-//W3C//DTD SVG 1.1//EN"
        "http://www.w3.org/Graphics/SVG/1.1/DTD/svg11.dtd">
<svg class="icon" width="200px" height="200.00px" viewBox="0 0 1024 1024" version="1.1"
     xmlns="http://www.w3.org/2000/svg">
    <path d="M896.227749 725.765747c-21.841872-12.653926-35.409793-36.665785-35.409793-62.669632V331.666057c0-22.371869 11.97393-42.69975 31.251817-53.04969 50.235706-26.979842 80.12953-79.155536 78.007543-136.159202-2.697984-72.447576-66.041613-137.543194-138.31519-142.149167A155.573088 155.573088 0 0 0 822.070183 0c-81.663522 0-148.101132 66.439611-148.101132 148.53313 0.068 23.321863-12.157929 44.41774-31.903813 55.049677l-325.860091 175.444972a70.989584 70.989584 0 0 1-33.531803 8.469951c-13.391922 0-26.365846-3.805978-37.52378-11.007936-24.987854-16.125906-54.047683-24.293858-84.095508-23.517862-75.927555 1.973988-139.123185 62.821632-143.865157 138.527188-2.593985 41.407757 11.547932 80.793527 39.831767 110.90735 27.891837 29.695826 67.249606 46.729726 107.975367 46.729726 28.179835 0 55.589674-7.957953 79.275536-23.015865 10.985936-6.981959 23.745861-10.671937 36.909783-10.671937a71.075584 71.075584 0 0 1 33.587804 8.48995l320.85212 172.746988c22.863866 12.311928 37.58778 36.099788 38.429774 62.079636a152.195108 152.195108 0 0 0 2.315987 21.865872c11.647932 64.747621 65.509616 114.38933 130.989232 120.717293 4.893971 0.471997 9.847942 0.711996 14.723914 0.713996h0.004c39.559768 0 76.75355-15.40591 104.721386-43.379746 27.973836-27.973836 43.379746-65.165618 43.379746-104.729387-0.004-52.641692-28.343834-101.761404-73.957566-128.187249z m21.241875 223.58469c-25.481851 25.481851-59.361652 39.513768-95.395441 39.513769a141.107173 141.107173 0 0 1-13.451921-0.653996c-59.619651-5.761966-108.665363-50.959701-119.269301-109.913356a138.613188 138.613188 0 0 1-2.117988-19.957883c-0.991994-30.66182-18.375892-58.739656-45.363734-73.273571L321.021119 612.318412a84.329506 84.329506 0 0 0-39.843767-10.065941c-15.677908 0-30.885819 4.401974-43.989742 12.731926-21.563874 13.70992-46.529727 20.955877-72.195577 20.955877-37.643779 0-72.573575-15.115911-98.355423-42.567751-25.759849-27.425839-38.645774-63.311629-36.277788-101.043408 4.317975-68.943596 61.875637-124.359271 131.037232-126.157261 27.29384-0.717996 53.837685 6.727961 76.593552 21.411875 13.297922 8.58195 28.745832 13.115923 44.681738 13.115923a84.235506 84.235506 0 0 0 39.787767-10.045941l325.86009-175.444972c24.041859-12.945924 38.929772-38.509774 38.847773-67.099607 0-74.387564 60.517645-134.90721 134.903209-134.907209 2.929983 0 5.911965 0.095999 8.849948 0.283998 65.823614 4.191975 123.509276 63.481628 125.967262 129.467241 1.933989 51.931696-25.295852 99.461417-71.065583 124.041274-23.565862 12.653926-38.201776 37.437781-38.201777 64.675621V663.096115c0 30.69382 16.089906 59.083654 41.991754 74.089566 41.553757 24.073859 67.369605 68.817597 67.369606 116.769315 0.002 36.035789-14.029918 69.91359-39.511769 95.395441z"
          fill="#4B555F"/>
    <path d="M754.056582 264.61045l-0.673996-0.395998c-13.66592-8.091953-29.07383-12.369928-44.557739-12.369928-13.59792 0-27.057841 3.37598-38.919772 9.765943l-336.20203 181.01094c-20.909877 11.257934-33.863802 33.511804-33.803802 58.407657l-0.012 1.883989c-0.333998 24.491856 12.609926 46.785726 33.773802 58.183659l333.954043 179.800947c12.115929 6.523962 25.859848 9.971942 39.735767 9.971941 15.869907 0 31.629815-4.405974 45.673733-12.799925l0.605996-0.361998c26.459845-15.601909 42.897749-43.877743 42.897749-73.795567V337.218024c0-29.485827-16.265905-57.301664-42.471751-72.607574z m29.273828 399.30366c0 25.265852-13.949918 49.185712-36.389787 62.417634l-0.789995 0.467997c-11.89593 7.111958-25.313852 10.871936-38.799773 10.871937-11.703931 0-23.281864-2.901983-33.479803-8.395951l-333.956044-179.798947c-16.815901-9.053947-27.097841-26.825843-26.829842-46.385728l0.011999-2.427986c-0.046-19.685885 10.24794-37.47178 26.859843-46.417728l336.20203-181.010939c9.945942-5.357969 21.239876-8.187952 32.663809-8.187952 13.121923 0 26.203846 3.641979 37.811778 10.509938l0.785996 0.465998c22.15187 12.933924 35.90779 36.383787 35.907789 61.195641v326.696086z"
          fill="#4B555F"/>
    <path d="M881.893833 750.509602c-30.63582-17.751896-49.669709-51.2457-49.669709-87.415487V331.666057c0-32.919807 17.743896-62.899631 46.309728-78.241542 40.551762-21.777872 64.675621-63.889626 62.965631-109.903356-2.143987-57.437663-54.271682-111.023349-111.557346-114.675328a124.749269 124.749269 0 0 0-7.865954-0.249999c-65.901614 0-119.5153 53.613686-119.5153 119.855298 0.099999 33.895801-17.889895 64.669621-46.941725 80.31153l-325.85809 175.444972a99.649416 99.649416 0 0 1-47.087724 11.88793c-18.907889 0-37.245782-5.385968-53.02969-15.573909-19.263887-12.431927-41.617756-19.001889-64.649621-19.001888-1.061994 0-2.125988 0.014-3.195981 0.041999-61.259641 1.593991-112.245342 50.669703-116.07332 111.727346-2.095988 33.447804 9.317945 65.245618 32.139812 89.543475 22.839866 24.317858 53.785685 37.707779 87.127489 37.707779 22.735867 0 44.845737-6.413962 63.933626-18.549891 15.577909-9.905942 33.643803-15.137911 52.247693-15.137912a99.765415 99.765415 0 0 1 47.147724 11.909931l320.84612 172.746987c31.801814 17.1239 52.285694 50.203706 53.459687 86.343495 0.187999 5.863966 0.819995 11.825931 1.881989 17.717896 9.387945 52.195694 52.809691 92.21346 105.589381 97.31343 3.981977 0.385998 8.011953 0.579997 11.97393 0.581996h0.004c31.921813 0 61.931637-12.431927 84.503505-35.001795 22.571868-22.571868 35.001795-52.585692 35.001795-84.509505 0-42.479751-22.867866-82.117519-59.68765-103.445394z m-69.96959-86.593492c0 35.343793-19.337887 68.701597-50.523704 87.08749l-0.575997 0.341998c-16.329904 9.763943-34.821796 14.925913-53.475687 14.925912-16.419904 0-32.685808-4.085976-47.035724-11.813931l-333.950043-179.802946c-26.245846-14.129917-42.287752-41.701756-41.871755-71.937579l0.014-1.979988c-0.078-30.247823 15.977906-57.709662 41.901754-71.66758l336.196031-181.010939c14.099917-7.591956 30.087824-11.603932 46.227729-11.603932 18.237893 0 36.359787 5.017971 52.397693 14.517914l0.617996 0.359998c30.889819 18.037894 50.077707 50.949701 50.077707 85.889497V663.91611z"
          fill="#FFD351"/>
    <path d="M367.304848 479.139193l-6.151964-11.677932-10.757937 5.667967a40.89976 40.89976 0 0 0-1.151993 0.641996l6.649961 11.401933 11.411933-6.033964z m-20.163882 21.291875c0-2.939983 0.743996-5.861966 2.147987-8.449951l-11.599932-6.297963a31.115818 31.115818 0 0 0-3.745978 14.823913c0.004 0.445997 0.018 0.891995 0.04 1.335993l13.179923-0.617997-0.022-0.793995z m43.517745-33.597803l-6.151964-11.677932-11.677932 6.151964 6.151964 11.677932 11.677932-6.151964z m23.349863-12.307928l-6.151964-11.673932-11.671931 6.153964 6.151964 11.671932 11.671931-6.151964z m23.355863-12.301928l-6.151964-11.677932-11.677931 6.151964 6.151964 11.677932 11.677931-6.151964z m23.349864-12.305928l-6.151964-11.677932-11.671932 6.151964 6.151964 11.677932 11.671932-6.151964z m-52.379694 131.277231l11.431933 6.595961 6.599962-11.431933-11.431933-6.595961-6.599962 11.431933z m22.859866 13.193922l11.431933 6.597962 6.599962-11.431933-11.431933-6.597962-6.599962 11.431933z m-81.067525-64.129624l-10.981935 7.315957a30.945819 30.945819 0 0 0 10.23794 9.597944l1.787989 1.033994 6.607962-11.427933-1.79599-1.035994a17.759896 17.759896 0 0 1-5.855966-5.483968z m12.481927 24.547856l11.431933 6.597962 6.599962-11.431933-11.431933-6.597962-6.599962 11.431933z m22.859866 13.191923l11.431933 6.597961 6.599962-11.431933-11.431933-6.597961-6.599962 11.431933zM993.917176 862.310947c-0.018 0.789995-2.641985 79.639533-65.853614 127.503253l7.965953 10.521939c68.2336-51.663697 70.999584-134.217214 71.085584-137.707193l-13.197923-0.317999zM913.01765 998.872147c-7.363957 4.453974-20.003883 11.95593-22.555868 13.127923l5.507968 11.99593c3.981977-1.829989 20.587879-11.839931 23.87786-13.827919l-6.82996-11.295934z"
          fill="#4B555F"/>
</svg>