<?xml version="1.0" standalone="no"?><!DOCTYPE svg PUBLIC "-//W3C//DTD SVG 1.1//EN"
        "http://www.w3.org/Graphics/SVG/1.1/DTD/svg11.dtd">
<svg class="icon" width="200px" height="200.00px" viewBox="0 0 1024 1024" version="1.1"
     xmlns="http://www.w3.org/2000/svg">
    <path d="M512.00374 116.814c-217.904 0-395.184 177.28-395.184 395.186S294.09774 907.186 512.00374 907.186c217.906 0 395.186-177.28 395.186-395.186S729.90974 116.814 512.00374 116.814z m0 777.196C301.36174 894.01 129.99574 722.64 129.99574 512S301.36174 129.99 512.00374 129.99c210.64 0 382.01 171.37 382.01 382.01S722.64374 894.01 512.00374 894.01zM181.52174 138.35l-8.732-9.864a510.834 510.834 0 0 0-9.874 8.968l8.986 9.638a503.2 503.2 0 0 1 9.62-8.742z m-18.31 748.476a516.89 516.89 0 0 0 9.888 8.966l8.724-9.874a498.028 498.028 0 0 1-9.636-8.74l-8.976 9.648z m-19.05-18.684a505.854 505.854 0 0 0 9.408 9.466l9.222-9.41a498.094 498.094 0 0 1-9.164-9.222l-9.466 9.166z m77.986-762.156l-7.664-10.718a516.4 516.4 0 0 0-10.742 7.896l7.944 10.512a478.172 478.172 0 0 1 10.462-7.69zM183.21774 904.502a523.898 523.898 0 0 0 10.34 8.446l8.202-10.312a516.276 516.276 0 0 1-10.08-8.23l-8.462 10.096z m18.2-782.862l-8.21-10.306a503.432 503.432 0 0 0-10.322 8.446l8.476 10.088a494.952 494.952 0 0 1 10.056-8.228zM136.03374 839.844l-9.93 8.66a506.514 506.514 0 0 0 8.902 9.936l9.698-8.92a490.936 490.936 0 0 1-8.67-9.676z m-46.476-62.45l-11.152 7.016a503.55 503.55 0 0 0 7.244 11.184l10.964-7.308a491.686 491.686 0 0 1-7.056-10.892z m-13.252-22.316l-11.5 6.434a522.62 522.62 0 0 0 6.652 11.538l11.328-6.73a507.158 507.158 0 0 1-6.48-11.242z m127.81 166.04a497.81 497.81 0 0 0 10.774 7.904l7.652-10.728a488.05 488.05 0 0 1-10.488-7.696l-7.938 10.52zM64.24374 732.12l-11.816 5.824a499.98 499.98 0 0 0 6.038 11.862l11.662-6.13a513.296 513.296 0 0 1-5.884-11.556z m39.714 66.872l-10.77 7.592a512.354 512.354 0 0 0 7.818 10.794l10.572-7.866a490.482 490.482 0 0 1-7.62-10.52z m15.502 20.838l-10.362 8.14a525.56 525.56 0 0 0 8.372 10.38l10.148-8.406a500.56 500.56 0 0 1-8.158-10.114z m106.402 116.81a506.31 506.31 0 0 0 11.172 7.332l7.086-11.108a509.33 509.33 0 0 1-10.884-7.144l-7.374 10.92z m69.712 39.5c4.04 1.89 8.106 3.724 12.2 5.506l5.258-12.082a483.804 483.804 0 0 1-11.878-5.36l-5.58 11.936z m65.242-939.644l-3.99-12.558a507.594 507.594 0 0 0-12.666 4.21l4.32 12.448a506.112 506.112 0 0 1 12.336-4.1z m-24.562 8.518l-4.642-12.332a489.37 489.37 0 0 0-12.43 4.868l4.966 12.202a511.172 511.172 0 0 1 12.106-4.738z m-16.142 941.812c4.132 1.67 8.292 3.29 12.476 4.856l4.62-12.34a509.464 509.464 0 0 1-12.156-4.73l-4.94 12.214z m25.076 9.382c4.214 1.45 8.456 2.85 12.72 4.196l3.962-12.568a490.72 490.72 0 0 1-12.394-4.088l-4.288 12.46zM243.65174 91.434l-7.098-11.1a510.684 510.684 0 0 0-11.132 7.324l7.386 10.912a494.22 494.22 0 0 1 10.844-7.136z m142.14-62.154l-3.32-12.752a500.236 500.236 0 0 0-12.874 3.538l3.658 12.658c4.158-1.2 8.334-2.35 12.536-3.444z m-119.926 48.746l-6.51-11.452a504.378 504.378 0 0 0-11.49 6.732l6.806 11.28a516.242 516.242 0 0 1 11.194-6.56zM53.40174 708.576l-12.108 5.198c1.752 4.08 3.554 8.132 5.408 12.156l11.966-5.512a494.998 494.998 0 0 1-5.266-11.842z m194.984 242.428a509.902 509.902 0 0 0 11.546 6.746l6.494-11.464a487.528 487.528 0 0 1-11.242-6.566l-6.798 11.284z m63.828-896.208l-5.28-12.074c-4.07 1.78-8.108 3.612-12.122 5.494l5.598 11.928c3.906-1.83 7.84-3.614 11.804-5.348z m-23.466 11.006l-5.91-11.778a511.1 511.1 0 0 0-11.818 6.122l6.21 11.62a509.16 509.16 0 0 1 11.518-5.964z m-17.1 898.386a500.7 500.7 0 0 0 11.884 6.134l5.89-11.788a509.788 509.788 0 0 1-11.578-5.974l-6.196 11.628z m-236.2-304.35l-12.584 3.908c1.32 4.254 2.694 8.486 4.118 12.692l12.482-4.224a510.246 510.246 0 0 1-4.016-12.376z m91.9-465.45l-10.152-8.398a503.69 503.69 0 0 0-8.376 10.404l10.372 8.128a472.746 472.746 0 0 1 8.156-10.134z m-31.022 41.764l-10.972-7.296a508.44 508.44 0 0 0-7.252 11.222l11.156 7.008a509.42 509.42 0 0 1 7.068-10.934z m14.974-21.292l-10.582-7.854a532.91 532.91 0 0 0-7.824 10.826l10.778 7.578a506.242 506.242 0 0 1 7.628-10.55zM48.08374 328.322l-12.25-4.854a519.79 519.79 0 0 0-4.77 12.512l12.374 4.53a493.208 493.208 0 0 1 4.646-12.188z m10.238-23.976l-11.98-5.49a506.824 506.824 0 0 0-5.416 12.236l12.116 5.172a515.608 515.608 0 0 1 5.28-11.918z m11.474-23.388l-11.67-6.112a501.03 501.03 0 0 0-6.05 11.928l11.83 5.804a493.934 493.934 0 0 1 5.89-11.62z m12.682-22.752l-11.336-6.716a510.128 510.128 0 0 0-6.664 11.594l11.512 6.412a480.65 480.65 0 0 1 6.488-11.29z m833.548-38.826l10.672-7.734a496.3 496.3 0 0 0-7.978-10.696l-10.458 8.012a507.95 507.95 0 0 1 7.764 10.418z m14.72 21.432l11.048-7.176a511.8 511.8 0 0 0-7.408-11.096l-10.86 7.458a515.722 515.722 0 0 1 7.22 10.814z m-30.518-42.07l10.252-8.278a509.534 509.534 0 0 0-8.522-10.27l-10.028 8.548a500.686 500.686 0 0 1 8.298 10zM162.50974 156.076l-9.234-9.398a524.532 524.532 0 0 0-9.398 9.472l9.474 9.158a517.566 517.566 0 0 1 9.158-9.232z m-18.074 18.694l-9.706-8.908a524.1 524.1 0 0 0-8.898 9.946l9.934 8.66a503.906 503.906 0 0 1 8.67-9.698z m738.932 4.184l9.804-8.802a518.368 518.368 0 0 0-9.042-9.814l-9.574 9.05a516.888 516.888 0 0 1 8.812 9.566zM15.26974 558.004l-13.12 1.2c0.406 4.442 0.868 8.866 1.388 13.272l13.086-1.54a507 507 0 0 1-1.354-12.932z m3.042 25.824l-13.044 1.882c0.636 4.412 1.33 8.806 2.078 13.18l12.988-2.218c-0.728-4.26-1.402-8.544-2.022-12.844z m4.382 25.626l-12.924 2.56a510.4 510.4 0 0 0 2.762 13.056l12.854-2.896a517.452 517.452 0 0 1-2.692-12.72z m21.1 75.008l-12.362 4.564a521.234 521.234 0 0 0 4.778 12.458l12.242-4.876a503.708 503.708 0 0 1-4.658-12.146z m326.892 319.784c4.272 1.224 8.566 2.396 12.882 3.508l3.294-12.756a497.27 497.27 0 0 1-12.544-3.418l-3.632 12.666zM13.57374 532.054l-13.168 0.528c0.178 4.456 0.412 8.896 0.698 13.322l13.148-0.858c-0.28-4.316-0.504-8.648-0.678-12.992z m14.838 102.766l-12.772 3.234c1.094 4.32 2.244 8.618 3.446 12.894l12.684-3.568a481.112 481.112 0 0 1-3.358-12.56zM13.17974 512c0-1.98 0.01-3.954 0.034-5.928l-13.176-0.154a512.832 512.832 0 0 0 0.016 13.34l13.176-0.176c-0.034-2.36-0.05-4.718-0.05-7.082z m11.96-109.072l-12.86-2.87c-0.968 4.334-1.88 8.69-2.736 13.062l12.932 2.53a499.82 499.82 0 0 1 2.664-12.722z m13.978-50.116l-12.49-4.198a522.8 522.8 0 0 0-4.102 12.75l12.592 3.874c1.28-4.168 2.614-8.306 4-12.426z m-7.654 24.898l-12.692-3.542c-1.194 4.28-2.334 8.58-3.418 12.906l12.782 3.204a483.348 483.348 0 0 1 3.328-12.568z m-11.316 50.738l-12.992-2.2a502.9 502.9 0 0 0-2.05 13.194l13.048 1.848c0.608-4.302 1.272-8.58 1.994-12.842z m-3.654 25.74l-13.09-1.514c-0.51 4.408-0.96 8.834-1.358 13.276l13.124 1.166c0.386-4.322 0.828-8.632 1.324-12.928z m-2.308 25.896l-13.15-0.832a513.974 513.974 0 0 0-0.672 13.326l13.168 0.494c0.162-4.342 0.38-8.672 0.654-12.988z m781.926 441.982l7.506 10.83a515.084 515.084 0 0 0 10.856-7.744l-7.798-10.624a476.3 476.3 0 0 1-10.564 7.538z m41.066-31.782l8.596 9.984a505.662 505.662 0 0 0 9.994-8.83l-8.844-9.762a537.806 537.806 0 0 1-9.746 8.608z m18.344-757.944a510.816 510.816 0 0 0-10.01-8.83l-8.586 9.994a516.514 516.514 0 0 1 9.762 8.606l8.834-9.77z m36.604 702.678l10.036 8.54a512.8 512.8 0 0 0 8.522-10.286l-10.26-8.27a470.508 470.508 0 0 1-8.298 10.016z m-17.358 19.366l9.582 9.046a511.724 511.724 0 0 0 9.034-9.82l-9.806-8.798a518.798 518.798 0 0 1-8.81 9.572z m-18.332 18.444l9.102 9.526a511.406 511.406 0 0 0 9.526-9.338l-9.342-9.29a524.134 524.134 0 0 1-9.286 9.102z m-39.388 33.88l8.064 10.422c3.518-2.722 7-5.488 10.44-8.296l-8.33-10.208a492.422 492.422 0 0 1-10.174 8.082z m57.798-755.944a488.474 488.474 0 0 0-9.54-9.338l-9.092 9.534a504.22 504.22 0 0 1 9.29 9.094l9.342-9.29zM752.00374 949.402l6.348 11.546a493.52 493.52 0 0 0 11.584-6.568l-6.648-11.376a495.916 495.916 0 0 1-11.284 6.398z m17.482-880.046a519.034 519.034 0 0 0-11.628-6.576l-6.34 11.556a493.188 493.188 0 0 1 11.336 6.408l6.632-11.388z m-40.52 891.94l5.73 11.864a486.008 486.008 0 0 0 11.912-5.954l-6.048-11.706a481.68 481.68 0 0 1-11.594 5.796z m106.312-846.352a499.5 499.5 0 0 0-10.458-8.302l-8.056 10.426a507.482 507.482 0 0 1 10.192 8.088l8.322-10.212z m-60.876 821.368l6.948 11.198a520.436 520.436 0 0 0 11.23-7.166l-7.232-11.014a501.78 501.78 0 0 1-10.946 6.982z m39.752-837.698a517.33 517.33 0 0 0-10.874-7.746l-7.506 10.83a510.998 510.998 0 0 1 10.598 7.548l7.782-10.632z m-21.952-15.206a510.546 510.546 0 0 0-11.264-7.172l-6.932 11.204a515.006 515.006 0 0 1 10.98 6.992l7.216-11.024zM1002.63174 602.52l12.962 2.384c0.802-4.366 1.544-8.754 2.234-13.16l-13.014-2.042a474.54 474.54 0 0 1-2.182 12.818z m-5.348 25.442l12.816 3.054a503.26 503.26 0 0 0 2.92-13.026l-12.894-2.71a480.584 480.584 0 0 1-2.842 12.682z m-88.816 186.808l10.466 8.008a507.644 507.644 0 0 0 7.978-10.716l-10.672-7.73a486.65 486.65 0 0 1-7.772 10.438z m82.128-161.686l12.636 3.728c1.256-4.26 2.458-8.546 3.604-12.852l-12.73-3.394a502.98 502.98 0 0 1-3.51 12.518z m18.732-102.108l13.142 1.008c0.334-4.424 0.622-8.86 0.854-13.31l-13.16-0.682a496.324 496.324 0 0 1-0.836 12.984z m1.5-38.976c0 4.348-0.056 8.682-0.168 13.004l13.172 0.334c0.116-4.436 0.172-8.88 0.172-13.34h-13.176z m-4.178 64.842l13.064 1.69c0.57-4.4 1.084-8.816 1.548-13.25l-13.108-1.36a500.292 500.292 0 0 1-1.504 12.92zM411.11374 23.382l-2.65-12.906a501.74 501.74 0 0 0-13.04 2.856l2.994 12.834c4.21-0.982 8.442-1.908 12.696-2.784z m512.62 770.318l10.868 7.446a518.22 518.22 0 0 0 7.412-11.116l-11.058-7.166a542.058 542.058 0 0 1-7.222 10.836z m27.158-44.424l11.58 6.284a493.814 493.814 0 0 0 6.22-11.844l-11.744-5.97a489.53 489.53 0 0 1-6.056 11.53z m11.804-23.228l11.898 5.666a514.396 514.396 0 0 0 5.594-12.158l-12.044-5.348a487.85 487.85 0 0 1-5.448 11.84z m10.58-23.828l12.172 5.044a491.07 491.07 0 0 0 4.954-12.446l-12.31-4.706a448.276 448.276 0 0 1-4.816 12.108z m9.312-24.35l12.43 4.38c1.48-4.206 2.912-8.434 4.286-12.69l-12.542-4.05a479.488 479.488 0 0 1-4.174 12.36z m-44.7 93.97l11.238 6.884a499.686 499.686 0 0 0 6.828-11.502l-11.418-6.576a473.39 473.39 0 0 1-6.648 11.194zM512.00374 1010.824c-3.156 0-6.31-0.03-9.454-0.088l-0.248 13.172c3.23 0.062 6.46 0.092 9.69 0.092l3.654-0.01-0.094-13.176-3.548 0.01zM541.18574 0.816a506.688 506.688 0 0 0-13.334-0.578l-0.394 13.172c4.34 0.13 8.672 0.32 12.992 0.562l0.736-13.156z m-26.738 12.366l0.068-13.176L511.99774 0a527.14 527.14 0 0 0-10.826 0.114l0.27 13.172a562.06 562.06 0 0 1 10.56-0.11l2.446 0.006zM475.64374 1022.726c4.426 0.312 8.87 0.568 13.326 0.766l0.584-13.164c-4.344-0.192-8.668-0.44-12.984-0.744l-0.926 13.142z m52.902-12.17l0.428 13.168c4.456-0.146 8.9-0.348 13.33-0.604l-0.772-13.154c-4.308 0.25-8.64 0.446-12.986 0.59zM567.77974 3.004c-4.414-0.478-8.84-0.898-13.284-1.266l-1.08 13.134c4.332 0.356 8.646 0.766 12.948 1.23l1.416-13.098zM462.51374 15.6l-1.296-13.112c-4.438 0.438-8.86 0.93-13.26 1.482l1.632 13.074c4.292-0.536 8.6-1.016 12.924-1.444z m-25.802 3.22l-1.968-13.026a499.42 499.42 0 0 0-13.174 2.17l2.316 12.97c4.256-0.758 8.53-1.464 12.826-2.114zM487.83374 0.562a522 522 0 0 0-13.32 0.792l0.95 13.142a493.64 493.64 0 0 1 12.98-0.77l-0.61-13.164zM396.52974 1010.92c4.328 1 8.678 1.944 13.046 2.832l2.62-12.914a480.94 480.94 0 0 1-12.702-2.754l-2.964 12.836z m26.156 5.314c4.374 0.768 8.762 1.482 13.174 2.14l1.942-13.03a503.102 503.102 0 0 1-12.836-2.088l-2.28 12.978z m131.818-7.194l1.106 13.13c4.444-0.376 8.874-0.808 13.28-1.296l-1.442-13.094c-4.296 0.472-8.612 0.892-12.944 1.26z m-105.418 11.132c4.406 0.538 8.826 1.022 13.262 1.452l1.266-13.116a499.7 499.7 0 0 1-12.928-1.414l-1.6 13.078zM646.53574 17.858a511.74 511.74 0 0 0-12.954-3.336l-3.122 12.804c4.23 1.03 8.438 2.114 12.628 3.25l3.448-12.718z m50.794 16.718a496.554 496.554 0 0 0-12.528-4.68l-4.444 12.404c4.092 1.466 8.158 2.986 12.194 4.556l4.778-12.28z m-25.178-9.028a502.02 502.02 0 0 0-12.756-4.012l-3.792 12.618a506.7 506.7 0 0 1 12.43 3.91l4.118-12.516z m9.012 955.866l4.47 12.396a526.472 526.472 0 0 0 12.498-4.69l-4.796-12.276a504.654 504.654 0 0 1-12.172 4.57z m-24.68 8.168l3.808 12.614a506.032 506.032 0 0 0 12.73-4.03l-4.144-12.506a495.74 495.74 0 0 1-12.394 3.922z m48.858-17.606l5.112 12.142a509.144 509.144 0 0 0 12.194-5.32l-5.43-12.006c-3.932 1.78-7.888 3.506-11.876 5.184z m16.642-927.072a502.878 502.878 0 0 0-12.262-5.33l-5.086 12.156a478.74 478.74 0 0 1 11.936 5.188l5.412-12.014zM620.53574 11.528c-4.354-0.94-8.724-1.824-13.12-2.65l-2.436 12.948c4.276 0.806 8.536 1.668 12.778 2.582l2.778-12.88zM580.34574 1006.18l1.792 13.054c4.418-0.604 8.814-1.266 13.194-1.982l-2.128-13.004c-4.266 0.7-8.552 1.342-12.858 1.932z m13.894-999.612c-4.384-0.708-8.788-1.36-13.206-1.956l-1.758 13.06c4.306 0.58 8.592 1.214 12.864 1.904l2.1-13.008z m151.818 49.942a496.852 496.852 0 0 0-11.962-5.962l-5.722 11.868c3.912 1.888 7.798 3.824 11.654 5.808l6.03-11.714z m-114.648 939.934l3.148 12.794a509.28 509.28 0 0 0 12.914-3.354l-3.482-12.708a502.14 502.14 0 0 1-12.58 3.268zM606.00374 1001.984l2.47 12.94a509.14 509.14 0 0 0 13.074-2.67l-2.806-12.876c-4.224 0.922-8.47 1.788-12.738 2.606z"
          fill="#4B555F"/>
    <path d="M512.00174 152.714c-198.11 0-359.284 161.174-359.284 359.286 0 198.11 161.174 359.284 359.284 359.284 198.114 0 359.29-161.174 359.29-359.284 0-198.11-161.174-359.286-359.29-359.286z"
          fill="#71CBDF"/>
    <path d="M512.00374 116.814c-76.366 0-122 200.93-122 395.186s45.634 395.186 122 395.186c76.368 0 122.006-200.93 122.006-395.186S588.37174 116.814 512.00374 116.814z m0 777.196c-52.556 0-108.824-153.5-108.824-382.01S459.44774 129.99 512.00374 129.99s108.83 153.5 108.83 382.01S564.55774 894.01 512.00374 894.01z"
          fill="#4B555F"/>
    <path d="M123.40574 505.412h777.194v13.176H123.40574zM800.33374 252.512c-0.91 0.988-92.894 98.822-288.33 98.822-195.434 0-287.42-97.834-288.324-98.822l-9.728 8.89c3.844 4.21 96.43 103.11 298.052 103.11 201.624 0 294.216-98.9 298.054-103.11l-9.724-8.89zM512.00374 659.55c-201.624 0-294.208 98.9-298.052 103.11l9.728 8.89c0.904-0.988 92.89-98.822 288.324-98.822 195.436 0 287.422 97.832 288.33 98.82l9.724-8.89c-3.84-4.212-96.43-103.108-298.054-103.108zM954.50374 192l-3.414 71.994-67.842-31.78-5.594 11.932 85.668 40.126 4.34-91.65z"
          fill="#4B555F"/>
</svg>